# File created by Blade
# Date/Time:  Tue Jan 27 19:54:32 2015
#---------------------------------------------------------
:version 1.10
:name HOM
:units
  mass 1.0
  length 1.000000
  angle deg
:documentation
     Acclaim Skeleton File
:root
   axis xyz
   order TX TY TZ RX RY RZ
   position 0.000000 0.000000 0.000000
   orientation 0 0 0
:bonedata
   begin
      id 1
      name Spine_dum
      direction 0.000000 1.000000 0.000000
      length 6.116652
      axis 0.0 0.0 0.0 xyz
   end
   begin
      id 2
      name LeftUpLeg_dum
      direction 1.000000 0.000000 0.000000
      length 4.711765
      axis 0.0 0.0 0.0 xyz
   end
   begin
      id 3
      name RightUpLeg_dum
      direction -1.000000 0.000000 0.000000
      length 4.711765
      axis 0.0 0.0 0.0 xyz
   end
   begin
      id 4
      name Spine
      direction 0.000000 1.000000 0.000000
      length 0.000000
      axis 0.0 0.0 0.0 xyz
      dof rx ry rz
   end
   begin
      id 5
      name Spine_dum1
      direction 0.000000 1.000000 0.000000
      length 15.225563
      axis 0.0 0.0 0.0 xyz
   end
   begin
      id 6
      name Spine_dum2
      direction 0.000000 1.000000 0.000000
      length 8.977654
      axis 0.0 0.0 0.0 xyz
   end
   begin
      id 7
      name Spine_dum3
      direction 0.000000 1.000000 0.000000
      length 8.977654
      axis 0.0 0.0 0.0 xyz
   end
   begin
      id 8
      name Head
      direction 0.000000 1.000000 0.000000
      length 4.527550
      axis 0.0 0.0 0.0 xyz
      dof rx ry rz
   end
   begin
      id 9
      name LeftShoulder
      direction 1.000000 0.000000 0.000000
      length 7.110130
      axis 0.0 0.0 -90.0 xyz
      dof rx ry rz
   end
   begin
      id 10
      name LeftArm
      direction 1.000000 0.000000 0.000000
      length 10.398341
      axis 0.0 0.0 -90.0 xyz
      dof rx ry rz
   end
   begin
      id 11
      name LeftForeArm
      direction 1.000000 0.000000 0.000000
      length 8.888997
      axis 0.0 0.0 -90.0 xyz
      dof ry rz rx
   end
   begin
      id 12
      name LeftHand
      direction 0.000000 0.000000 0.000000
      length 0.000000
      axis 0.0 0.0 -90.0 xyz
      dof rx ry rz
   end
   begin
      id 13
      name LeftHand_dum1
      direction 0.000000 0.000000 0.000000
      length 0.000000
      axis 0.0 0.0 -90.0 xyz
   end
   begin
      id 14
      name LeftHand_dum2
      direction 1.000000 0.000000 0.000000
      length 3.937000
      axis 0.0 0.0 -90.0 xyz
   end
   begin
      id 15
      name LeftHandThumb1
      direction 0.000000 0.000000 1.000000
      length 3.937000
      axis 0.0 0.0 -90.0 xyz
      dof rx rz ry
   end
   begin
      id 16
      name RightShoulder
      direction -1.000000 0.000000 0.000000
      length 7.110130
      axis 0.0 0.0 90.0 xyz
      dof rx ry rz
   end
   begin
      id 17
      name RightArm
      direction -1.000000 0.000000 0.000000
      length 10.398341
      axis 0.0 0.0 90.0 xyz
      dof rx ry rz
   end
   begin
      id 18
      name RightForeArm
      direction -1.000000 0.000000 0.000000
      length 8.888997
      axis 0.0 0.0 90.0 xyz
      dof ry rz rx
   end
   begin
      id 19
      name RightHand
      direction 0.000000 0.000000 0.000000
      length 0.000000
      axis 0.0 0.0 90.0 xyz
      dof rx ry rz
   end
   begin
      id 20
      name RightHand_dum1
      direction 0.000000 0.000000 0.000000
      length 0.000000
      axis 0.0 0.0 90.0 xyz
   end
   begin
      id 21
      name RightHand_dum2
      direction -1.000000 0.000000 0.000000
      length 3.937000
      axis 0.0 0.0 90.0 xyz
   end
   begin
      id 22
      name RightHandThumb1
      direction 0.000000 0.000000 1.000000
      length 3.937000
      axis 0.0 0.0 90.0 xyz
      dof rx rz ry
   end
   begin
      id 23
      name LeftUpLeg
      direction 0.000000 -1.000000 0.000000
      length 15.510451
      axis 0.0 0.0 0.0 xyz
      dof rx ry rz
   end
   begin
      id 24
      name LeftLeg
      direction 0.000000 -1.000000 0.000000
      length 14.858061
      axis 0.0 0.0 0.0 xyz
      dof rx ry rz
   end
   begin
      id 25
      name LeftFoot
      direction 0.000000 -0.258819 0.965926
      length 5.128852
      axis 15.0 0.0 0.0 xyz
      dof rx ry rz
   end
   begin
      id 26
      name LeftToeBase
      direction 0.000000 0.000000 1.000000
      length 2.952750
      axis 0.0 0.0 0.0 xyz
      dof rx ry rz
   end
   begin
      id 27
      name RightUpLeg
      direction 0.000000 -1.000000 0.000000
      length 15.510451
      axis 0.0 0.0 0.0 xyz
      dof rx ry rz
   end
   begin
      id 28
      name RightLeg
      direction 0.000000 -1.000000 0.000000
      length 14.858061
      axis 0.0 0.0 0.0 xyz
      dof rx ry rz
   end
   begin
      id 29
      name RightFoot
      direction 0.000000 -0.258819 0.965926
      length 5.128852
      axis 15.0 0.0 0.0 xyz
      dof rx ry rz
   end
   begin
      id 30
      name RightToeBase
      direction 0.000000 0.000000 1.000000
      length 2.952750
      axis 0.0 0.0 0.0 xyz
      dof rx ry rz
   end
:hierarchy
   begin
      root Spine_dum LeftUpLeg_dum RightUpLeg_dum
      Spine_dum Spine
      LeftUpLeg_dum LeftUpLeg
      RightUpLeg_dum RightUpLeg
      Spine Spine_dum1 Spine_dum2 Spine_dum3
      Spine_dum1 Head
      Spine_dum2 LeftShoulder
      Spine_dum3 RightShoulder
      LeftShoulder LeftArm
      LeftArm LeftForeArm
      LeftForeArm LeftHand
      LeftHand LeftHand_dum1 LeftHand_dum2
      LeftHand_dum1 LeftHandThumb1
      RightShoulder RightArm
      RightArm RightForeArm
      RightForeArm RightHand
      RightHand RightHand_dum1 RightHand_dum2
      RightHand_dum1 RightHandThumb1
      LeftUpLeg LeftLeg
      LeftLeg LeftFoot
      LeftFoot LeftToeBase
      RightUpLeg RightLeg
      RightLeg RightFoot
      RightFoot RightToeBase
   end

# File created by Blade
# Date/Time:  Tue Jan 27 19:54:25 2015
# Frame Rate: 120.000 fps
#------------------------------------------------------
:FULLY-SPECIFIED
:DEGREES
525
root 5.220726 33.948860 -0.110098 -6.942640 23.309497 -22.656591
Spine 4.651059 1.531093 17.063015
Head -15.115125 -15.855389 18.784167
LeftShoulder -12.147597 -3.871558 32.018391
LeftArm -7.815063 32.615770 -94.650221
LeftForeArm 2.870358 -0.000000 85.561049
LeftHand 23.763235 -0.000000 46.053017
LeftHandThumb1 -26.253704 0.000000 33.147579
RightShoulder -24.114292 -17.372886 -14.699226
RightArm 3.248796 -16.791807 90.047705
RightForeArm -15.709049 -0.000000 27.894182
RightHand 15.870827 -0.000000 5.574695
RightHandThumb1 -24.326973 -0.000000 -32.862282
LeftUpLeg 1.506400 -2.773753 16.310149
LeftLeg -0.758300 -0.000000 0.000000
LeftFoot -11.432146 4.713553 -17.034605
LeftToeBase 19.813115 -0.000000 -0.000000
RightUpLeg -59.590931 11.262376 29.212299
RightLeg 132.873198 -0.000000 -0.000000
RightFoot 35.173372 -19.271335 23.713368
RightToeBase 18.844325 -0.000000 -0.000000
526
root 5.229997 33.934086 -0.097995 -7.099604 23.266335 -22.478377
Spine 4.704777 1.467734 16.959813
Head -14.794627 -15.862698 18.599887
LeftShoulder -12.101796 -3.829362 32.015444
LeftArm -7.785124 32.730650 -94.633005
LeftForeArm 2.819689 -0.000000 85.467627
LeftHand 23.724729 -0.000000 45.957621
LeftHandThumb1 -26.253704 0.000000 33.147579
RightShoulder -24.113132 -17.476149 -14.745820
RightArm 3.325720 -17.016834 90.065196
RightForeArm -15.647939 -0.000000 27.862048
RightHand 15.868153 -0.000000 5.745875
RightHandThumb1 -24.326973 -0.000000 -32.862282
LeftUpLeg 1.748007 -2.710134 16.136617
LeftLeg -0.675631 -0.000000 0.000000
LeftFoot -11.513167 4.586862 -17.060491
LeftToeBase 19.725470 -0.000000 -0.000000
RightUpLeg -59.887998 11.539953 29.239538
RightLeg 131.303734 -0.000000 -0.000000
RightFoot 34.108250 -21.216082 25.104716
RightToeBase 30.295381 -0.000000 -0.000000
527
root 5.267767 33.899130 -0.053992 -7.448069 23.413831 -22.021803
Spine 4.935107 1.153661 16.528985
Head -14.349960 -15.907309 18.439139
LeftShoulder -12.029920 -3.786901 32.107851
LeftArm -7.813977 32.837588 -94.626771
LeftForeArm 2.705726 -0.000000 85.352280
LeftHand 23.849011 0.000000 45.839805
LeftHandThumb1 -26.253704 0.000000 33.147579
RightShoulder -24.110248 -17.626352 -14.825836
RightArm 3.352743 -17.187810 90.190260
RightForeArm -15.674052 0.000000 27.854066
RightHand 15.737578 0.000000 5.518018
RightHandThumb1 -24.326973 -0.000000 -32.862282
LeftUpLeg 2.346043 -2.866595 15.630650
LeftLeg -0.734534 -0.000000 0.000000
LeftFoot -11.513095 4.474613 -17.104836
LeftToeBase 19.972466 -0.000000 -0.000000
RightUpLeg -60.442365 11.715115 28.865108
RightLeg 131.565915 -0.000000 -0.000000
RightFoot 34.956757 -18.221013 22.461258
RightToeBase 13.520832 -0.000000 -0.000000
528
root 5.290793 33.877475 -0.033931 -7.692756 23.432894 -21.726519
Spine 5.104706 0.985329 16.294034
Head -14.010665 -15.877502 18.278550
LeftShoulder -12.037127 -3.744485 32.129948
LeftArm -7.741112 32.987255 -94.607702
LeftForeArm 2.588253 -0.000000 85.182470
LeftHand 23.842468 -0.000000 46.090846
LeftHandThumb1 -26.253704 0.000000 33.147579
RightShoulder -24.056257 -17.679509 -14.899670
RightArm 3.330443 -17.453086 90.215215
RightForeArm -15.624457 0.000000 27.912736
RightHand 15.664183 0.000000 6.263658
RightHandThumb1 -24.326973 -0.000000 -32.862282
LeftUpLeg 2.725484 -2.834302 15.311765
LeftLeg -0.671751 -0.000000 0.000000
LeftFoot -11.546973 4.313537 -17.120613
LeftToeBase 20.551103 -0.000000 -0.000000
RightUpLeg -60.871862 11.913699 28.788967
RightLeg 130.514053 -0.000000 -0.000000
RightFoot 35.105078 -18.013765 21.635332
RightToeBase 11.894933 -0.000000 -0.000000
529
root 5.311976 33.856212 -0.009902 -7.991124 23.471883 -21.460903
Spine 5.298074 0.844354 16.084007
Head -13.649314 -15.906454 18.096963
LeftShoulder -11.964064 -3.657346 32.113082
LeftArm -7.558103 33.116111 -94.506220
LeftForeArm 2.505385 0.000000 85.031855
LeftHand 23.766466 -0.000000 46.346744
LeftHandThumb1 -26.253704 0.000000 33.147579
RightShoulder -24.126526 -17.778615 -14.941478
RightArm 3.374833 -17.692490 90.265627
RightForeArm -15.547131 -0.000000 27.913328
RightHand 15.615046 0.000000 6.309574
RightHandThumb1 -24.326973 -0.000000 -32.862282
LeftUpLeg 3.145246 -2.851109 15.020485
LeftLeg -0.613890 -0.000000 0.000000
LeftFoot -11.592148 4.202382 -17.115940
LeftToeBase 20.449039 -0.000000 -0.000000
RightUpLeg -61.302504 12.116048 28.660250
RightLeg 129.406072 -0.000000 -0.000000
RightFoot 34.322789 -18.525106 22.564509
RightToeBase 13.414335 -0.000000 -0.000000
530
root 5.326685 33.836181 0.017481 -8.376322 23.473990 -21.225756
Spine 5.607992 0.680498 15.899211
Head -13.321704 -15.898392 17.915885
LeftShoulder -11.930350 -3.693067 32.120371
LeftArm -7.489038 33.180906 -94.458000
LeftForeArm 2.414454 -0.000000 84.860673
LeftHand 23.805452 -0.000000 46.403268
LeftHandThumb1 -26.253704 0.000000 33.147579
RightShoulder -24.075223 -17.791272 -15.023117
RightArm 3.279639 -17.614227 90.437951
RightForeArm -15.615692 -0.000000 27.968751
RightHand 15.619315 0.000000 6.355949
RightHandThumb1 -24.326973 -0.000000 -32.862282
LeftUpLeg 3.640639 -2.806801 14.758019
LeftLeg -0.522186 -0.000000 0.000000
LeftFoot -11.686814 4.137194 -16.968468
LeftToeBase 20.391979 -0.000000 -0.000000
RightUpLeg -61.713223 12.398669 28.442907
RightLeg 128.231956 -0.000000 -0.000000
RightFoot 33.184893 -19.755754 24.437486
RightToeBase 17.624276 -0.000000 -0.000000
